<?xml version="1.0" encoding="UTF-8" standalone="no"?><svg
xml:space="preserve"
width="1275.146"
height="666.265"
viewBox="0 0 337.382 176.283"
version="1.1"
id="svg20"
xmlns:xlink="http://www.w3.org/1999/xlink"
xmlns="http://www.w3.org/2000/svg"
xmlns:svg="http://www.w3.org/2000/svg"><defs
id="defs3"><pattern
xlink:href="#pattern13"
preserveAspectRatio="xMidYMid"
id="pattern25"
patternTransform="matrix(0.35355339,0.35355339,-0.35355339,0.35355339,-4.9252201,4.1991125)" /><pattern
xlink:href="#pattern15"
preserveAspectRatio="xMidYMid"
id="pattern23"
patternTransform="matrix(0.35355339,0.35355339,-0.35355339,0.35355339,-4.9252201,27.625758)" /><pattern
xlink:href="#pattern16"
preserveAspectRatio="xMidYMid"
id="pattern22"
patternTransform="matrix(0.35355339,0.35355339,-0.35355339,0.35355339,-4.9252201,21.769098)" /><pattern
xlink:href="#pattern18"
preserveAspectRatio="xMidYMid"
id="pattern21"
patternTransform="matrix(0.35355339,0.35355339,-0.35355339,0.35355339,-4.9252201,15.912437)" /><pattern
xlink:href="#pattern14"
preserveAspectRatio="xMidYMid"
id="pattern20"
patternTransform="matrix(0.35355339,0.35355339,-0.35355339,0.35355339,-4.9252201,10.055774)" /><pattern
xlink:href="#pattern18"
preserveAspectRatio="xMidYMid"
id="pattern19"
patternTransform="matrix(0.35355339,0.35355339,-0.35355339,0.35355339,-4.9252201,33.482418)" /><pattern
xlink:href="#pattern16"
preserveAspectRatio="xMidYMid"
id="pattern18"
patternTransform="matrix(0.35355339,0.35355339,-0.35355339,0.35355339,1.0579907,20.40736)" /><pattern
xlink:href="#pattern15"
preserveAspectRatio="xMidYMid"
id="pattern16"
patternTransform="matrix(0.35355339,0.35355339,-0.35355339,0.35355339,1.0579907,30.28685)" /><pattern
xlink:href="#pattern14"
preserveAspectRatio="xMidYMid"
id="pattern15"
patternTransform="matrix(0.35355339,0.35355339,-0.35355339,0.35355339,1.0579907,33.13255)" /><pattern
xlink:href="#pattern13"
preserveAspectRatio="xMidYMid"
id="pattern14"
patternTransform="matrix(0.35355339,0.35355339,-0.35355339,0.35355339,1.0579907,17.561657)" /><pattern
xlink:href="#c"
preserveAspectRatio="xMidYMid"
id="pattern13"
patternTransform="matrix(0.35355339,0.35355339,-0.35355339,0.35355339,1.0579907,6.6949445)"
x="0"
y="0" /><pattern
xlink:href="#c"
preserveAspectRatio="xMidYMid"
id="pattern10"
patternTransform="matrix(0.35355339,0.35355339,-0.35355339,0.35355339,-11.133683,-2.3117321)"
x="0"
y="0" /><pattern
xlink:href="#a"
id="f"
x="0"
y="0"
patternTransform="rotate(45)scale(1.25)"
preserveAspectRatio="xMidYMid" /><pattern
id="b"
width="2.5"
height="1"
patternTransform="scale(2)"
patternUnits="userSpaceOnUse"
preserveAspectRatio="xMidYMid"
style="fill:#88c6ef"><path
d="M0-.5h1v2H0z"
style="stroke:none"
id="path1" /></pattern><pattern
xlink:href="#c"
id="d"
x="0"
y="0"
patternTransform="matrix(0.67666583,0.67666583,-0.67666583,0.67666583,229.21347,19.398315)"
preserveAspectRatio="xMidYMid" /><pattern
id="c"
width="2.5"
height="1"
patternTransform="scale(2)"
patternUnits="userSpaceOnUse"
preserveAspectRatio="xMidYMid"
style="fill:#4ea8f1"><path
d="M0-.5h1v2H0z"
style="stroke:none"
id="path2" /></pattern><pattern
xlink:href="#c"
id="e"
x="0"
y="0"
patternTransform="matrix(0.67666583,0.67666583,-0.67666583,0.67666583,68.454,-61.504)"
preserveAspectRatio="xMidYMid" /><pattern
id="a"
width="2.5"
height="1"
patternTransform="scale(2)"
patternUnits="userSpaceOnUse"
preserveAspectRatio="xMidYMid"
style="fill:#ffffff"><path
d="M0-.5h1v2H0z"
style="stroke:none"
id="path3" /></pattern></defs><path
d="M 0.00155018,0 H 337.38255 V 176.28299 H 0.00255018 Z"
style="fill:#ffffff;fill-opacity:1;stroke:none;stroke-width:0.557913;stroke-dasharray:none;stroke-dashoffset:0;stroke-opacity:1;paint-order:stroke fill markers"
id="path4" /><text
xml:space="preserve"
style="font-style:normal;font-variant:normal;font-weight:normal;font-stretch:normal;font-size:32.958px;font-family:sans-serif;fill:#4ea8f1;fill-opacity:1;stroke:#4ea8f1;stroke-width:0.457995;stroke-dasharray:none;stroke-dashoffset:0;stroke-opacity:1"
x="21.957468"
y="99.363548"
id="text20"><tspan
id="tspan20"
style="font-style:normal;font-variant:normal;font-weight:normal;font-stretch:normal;font-size:32.958px;font-family:sans-serif;fill:#4ea8f1;fill-opacity:1;stroke:#4ea8f1;stroke-width:0.457995;stroke-dasharray:none;stroke-opacity:1"
x="21.957468"
y="99.363548">cURL</tspan></text><g
style="fill:#ffffff;stroke-width:1.00011;stroke-dasharray:none"
id="g21"
transform="matrix(2.4245352,0,0,2.4245352,109.49066,58.667912)"><path
d="m 22.23,4.702 c -0.535,0 -0.967,-0.433 -0.967,-0.967 0,-0.535 0.433,-0.967 0.967,-0.967 0.534,0 0.967,0.433 0.967,0.967 0.001,0.534 -0.433,0.967 -0.967,0.967 m -9.608,16.531 c -0.535,0 -0.967,-0.433 -0.967,-0.967 0,-0.535 0.433,-0.967 0.967,-0.967 0.534,0 0.967,0.433 0.967,0.967 -0.001,0.533 -0.433,0.967 -0.967,0.967 M 22.23,1.964 c -0.978,0 -1.771,0.793 -1.771,1.771 0,0.209 0.053,0.403 0.119,0.589 l -8.309,14.241 c -0.803,0.168 -1.418,0.847 -1.418,1.7 0,0.978 0.793,1.771 1.771,1.771 0.977,0 1.77,-0.793 1.77,-1.771 0,-0.197 -0.053,-0.376 -0.111,-0.553 L 22.632,5.424 c 0.779,-0.187 1.37,-0.854 1.37,-1.69 -10e-4,-0.977 -0.794,-1.77 -1.772,-1.77 m -7.247,2.738 c -0.535,0 -0.967,-0.433 -0.967,-0.967 0,-0.535 0.433,-0.967 0.967,-0.967 0.534,0 0.967,0.433 0.967,0.967 0,0.534 -0.433,0.967 -0.967,0.967 M 5.374,21.233 c -0.534,0 -0.967,-0.433 -0.967,-0.967 0,-0.535 0.433,-0.967 0.967,-0.967 0.535,0 0.967,0.433 0.967,0.967 0,0.533 -0.433,0.967 -0.967,0.967 M 14.983,1.964 c -0.979,0 -1.771,0.793 -1.771,1.771 0,0.209 0.053,0.403 0.119,0.589 L 5.022,18.565 c -0.804,0.168 -1.419,0.847 -1.419,1.7 0,0.978 0.793,1.771 1.771,1.771 0.978,0 1.771,-0.793 1.771,-1.771 0,-0.197 -0.053,-0.376 -0.111,-0.553 L 15.385,5.424 c 0.779,-0.187 1.37,-0.854 1.37,-1.69 -10e-4,-0.977 -0.794,-1.77 -1.772,-1.77 M 1.749,7.663 c 0.534,0 0.967,0.433 0.967,0.967 0,0.534 -0.433,0.967 -0.967,0.967 -0.534,0 -0.967,-0.432 -0.967,-0.966 0,-0.534 0.433,-0.968 0.967,-0.968 m 0,-0.78 c -0.964,0 -1.748,0.784 -1.748,1.748 0,0.964 0.784,1.748 1.748,1.748 0.964,0 1.748,-0.784 1.748,-1.748 0,-0.964 -0.784,-1.748 -1.748,-1.748 z m 0,6.969 c 0.534,0 0.967,0.433 0.967,0.967 0,0.534 -0.433,0.967 -0.967,0.967 -0.534,0 -0.967,-0.433 -0.967,-0.967 0,-0.534 0.433,-0.967 0.967,-0.967 m 0,-0.78 c -0.964,0 -1.748,0.784 -1.748,1.748 0,0.964 0.784,1.748 1.748,1.748 0.964,0 1.748,-0.784 1.748,-1.748 0,-0.964 -0.784,-1.748 -1.748,-1.748 z"
id="path1-7"
style="fill:#4ea8f1;fill-opacity:1;stroke-width:1.00011;stroke-dasharray:none" /></g><path
id="path15"
style="fill:none;stroke:#4ea8f1;stroke-width:1.05834;stroke-linecap:butt;stroke-linejoin:miter;stroke-dasharray:2.11668, 2.11668;stroke-dashoffset:0.952506;stroke-opacity:1"
d="m 180.23624,89.252828 v 9.22621 H 152.0573 m 15.01542,-21.103172 h 13.16352 v 10.818626 h 23.69664 m 27.99052,-0.05274 h -27.99052" /><g
id="g5"
transform="translate(-144.48734,-5.6075645)"
style="stroke-width:1.32292;stroke-dasharray:none"><path
id="rect1"
style="fill:#ffffff;stroke:#4ea8f1;stroke-width:1.32292;stroke-linecap:round;stroke-linejoin:round;stroke-miterlimit:0;stroke-dasharray:none;stroke-dashoffset:16"
d="m 388.17988,46.787999 c -4.80312,0 -8.66977,3.866644 -8.66977,8.669774 v 76.583087 c 0,4.80314 3.86665,8.66926 8.66977,8.66926 h 60.81865 c 4.80313,0 8.67029,-3.86612 8.67029,-8.66926 V 66.436455 L 438.01984,46.787999 h -1.70791 z" /><path
id="path5"
style="fill:#ffffff;stroke:#4ea8f1;stroke-width:1.32292;stroke-linecap:round;stroke-linejoin:round;stroke-miterlimit:0;stroke-dasharray:none;stroke-dashoffset:16"
d="M 457.6686,66.436418 438.02014,46.787962 v 10.978682 c 0,4.803135 3.86665,8.669774 8.66978,8.669774 z" /></g><path
id="rect6"
style="fill:url(#pattern10);fill-opacity:1;stroke:none;stroke-width:1.32292;stroke-linecap:round;stroke-linejoin:round;stroke-miterlimit:0;stroke-dasharray:none;stroke-dashoffset:16"
d="m 242.20421,63.829281 h 45.5245 v -6.000776 h -45.5245 z" /><path
id="path10"
style="fill:url(#pattern25);fill-opacity:1;stroke:none;stroke-width:1.35418;stroke-linecap:round;stroke-linejoin:round;stroke-miterlimit:0;stroke-dasharray:none;stroke-dashoffset:16"
d="m 242.3365,89.564347 c 21.17708,0 42.35417,0 63.53125,0 0,-0.948567 0,-1.897136 0,-2.845703 -21.17708,0 -42.35417,0 -63.53125,0 0,0.948567 0,1.897136 0,2.845703 z" /><path
id="path13"
style="fill:url(#pattern20);fill-opacity:1;stroke:none;stroke-width:1.35418;stroke-linecap:round;stroke-linejoin:round;stroke-miterlimit:0;stroke-dasharray:none;stroke-dashoffset:16"
d="m 242.3365,95.421007 c 21.17708,0 42.35417,0 63.53125,0 0,-0.94857 0,-1.89713 0,-2.8457 -21.17708,0 -42.35417,0 -63.53125,0 0,0.94857 0,1.89713 0,2.8457 z" /><path
id="path14"
style="fill:url(#pattern23);fill-opacity:1;stroke:none;stroke-width:1.35418;stroke-linecap:round;stroke-linejoin:round;stroke-miterlimit:0;stroke-dasharray:none;stroke-dashoffset:16"
d="m 242.3365,112.99099 c 21.17708,0 42.35417,0 63.53125,0 0,-0.94857 0,-1.89713 0,-2.8457 -21.17708,0 -42.35417,0 -63.53125,0 0,0.94857 0,1.89713 0,2.8457 z" /><path
id="path16"
style="fill:url(#pattern22);fill-opacity:1;stroke:none;stroke-width:1.35418;stroke-linecap:round;stroke-linejoin:round;stroke-miterlimit:0;stroke-dasharray:none;stroke-dashoffset:16"
d="m 242.3365,107.13433 c 21.17708,0 42.35417,0 63.53125,0 0,-0.94857 0,-1.89713 0,-2.8457 -21.17708,0 -42.35417,0 -63.53125,0 0,0.94857 0,1.89713 0,2.8457 z" /><path
id="path18"
style="fill:url(#pattern21);fill-opacity:1;stroke:none;stroke-width:1.35418;stroke-linecap:round;stroke-linejoin:round;stroke-miterlimit:0;stroke-dasharray:none;stroke-dashoffset:16"
d="m 242.3365,101.27767 c 21.17708,0 42.35417,0 63.53125,0 0,-0.94857 0,-1.897132 0,-2.845702 -21.17708,0 -42.35417,0 -63.53125,0 0,0.94857 0,1.897132 0,2.845702 z" /><path
id="path19"
style="fill:url(#pattern19);fill-opacity:1;stroke:none;stroke-width:1.35418;stroke-linecap:round;stroke-linejoin:round;stroke-miterlimit:0;stroke-dasharray:none;stroke-dashoffset:16"
d="m 242.3365,118.84765 c 21.17708,0 42.35417,0 63.53125,0 0,-0.94857 0,-1.89713 0,-2.8457 -21.17708,0 -42.35417,0 -63.53125,0 0,0.94857 0,1.89713 0,2.8457 z" /></svg>